PERFORMER "Smooth S o u n d s"
TITLE "TRAPPIN IN ＰＡＲＡＤＩＳＥ  50"
FILE "TRAPPIN IN ＰＡＲＡＤＩＳＥ  50-HjxZYiTpU3k.mp4" MP3
  TRACK 01 AUDIO
    TITLE "1..GREEN PICCOLO - Time Capsule"
    INDEX 01 00:00:00
  TRACK 02 AUDIO
    TITLE "2..Goupil. - JUST BEGUN"
    INDEX 01 03:17:00
  TRACK 03 AUDIO
    TITLE "3..superior. - WE HAD A DEAL"
    INDEX 01 05:24:00
  TRACK 04 AUDIO
    TITLE "4..KVN$ - let’s play"
    INDEX 01 08:19:00
  TRACK 05 AUDIO
    TITLE "5..aleks - babywipe"
    INDEX 01 10:50:00
  TRACK 06 AUDIO
    TITLE "6..Goupil. - MOON"
    INDEX 01 12:41:00
  TRACK 07 AUDIO
    TITLE "7..KVN$ - keep on wishin'"
    INDEX 01 14:55:00
  TRACK 08 AUDIO
    TITLE "8..FONSO - shawty"
    INDEX 01 17:08:00
  TRACK 09 AUDIO
    TITLE "9..NAKE - TOO EASY (w GIMBIT)"
    INDEX 01 18:55:00
  TRACK 10 AUDIO
    TITLE "10..ViNi $AN - PEEK A BOO"
    INDEX 01 21:21:00
  TRACK 11 AUDIO
    TITLE "11..Goupil. - BUST IT UP"
    INDEX 01 24:14:00
  TRACK 12 AUDIO
    TITLE "12..Sappy - NINE TO YO DOME"
    INDEX 01 26:57:00
  TRACK 13 AUDIO
    TITLE "13..DJ YUNG VAMP - IN NEW YORK MY NEGGA DONT MILLI ROCK"
    INDEX 01 29:08:00
  TRACK 14 AUDIO
    TITLE "14..[ bsd.u ] - tyler"
    INDEX 01 32:13:00
  TRACK 15 AUDIO
    TITLE "15..(no_show) - WITH A VENGEANCE"
    INDEX 01 33:31:00
  TRACK 16 AUDIO
    TITLE "16..N X X Y $ - WIT MY GUN w Fungi"
    INDEX 01 36:03:00
  TRACK 17 AUDIO
    TITLE "17..Sappy - Trust None (slowed)"
    INDEX 01 39:45:00
  TRACK 18 AUDIO
    TITLE "18..t1e.6k - 2 LATE w NGK999"
    INDEX 01 43:24:00
  TRACK 19 AUDIO
    TITLE "19..TOMMY II X DRAE DA SKI MASK - DIRTY TRAMP"
    INDEX 01 45:52:00
  TRACK 20 AUDIO
    TITLE "20..GIMBIT - FREAK NO MORE w DVLTEM"
    INDEX 01 50:32:00
  TRACK 21 AUDIO
    TITLE "21..GREEN PICCOLO - Wait"
    INDEX 01 52:14:00
  TRACK 22 AUDIO
    TITLE "22..Chvnge Up x half blunt prince - He Doesn't Feel Love (slowed)"
    INDEX 01 55:54:00
  TRACK 23 AUDIO
    TITLE "23..CARTIER ZOMBIE - CLOUD OF SMOKE W ROLAND JONES"
    INDEX 01 57:22:00
  TRACK 24 AUDIO
    TITLE "24..BERRYMANE - EYE FOR AN EYE"
    INDEX 01 58:48:00
  TRACK 25 AUDIO
    TITLE "25..xxx & ski mask - the slump god (knarf.✝ flip)"
    INDEX 01 61:06:00
  TRACK 26 AUDIO
    TITLE "26..GREEN PICCOLO - Please Don't"
    INDEX 01 62:17:00
  TRACK 27 AUDIO
    TITLE "27..cokeboy - AIN'T GONNA STOP ME w erick"
    INDEX 01 66:33:00
  TRACK 28 AUDIO
    TITLE "28..KVN$ - Gankin' Deez Fools (slowed)"
    INDEX 01 69:05:00
  TRACK 29 AUDIO
    TITLE "29..N9 - drive by"
    INDEX 01 71:06:00
  TRACK 30 AUDIO
    TITLE "30..KOPHEE KUT - I can't control my Kut"
    INDEX 01 73:45:00
  TRACK 31 AUDIO
    TITLE "31..coldcobain - I'M ON A BEAN"
    INDEX 01 75:47:00
  TRACK 32 AUDIO
    TITLE "32..yungmaple - HIT EM WITH THE BLADE NOT THE STRAP"
    INDEX 01 77:30:00
  TRACK 33 AUDIO
    TITLE "33..K e u z. ✞ - PASSED OUT"
    INDEX 01 79:45:00
  TRACK 34 AUDIO
    TITLE "34..GREEN PICCOLO - You Already Snow"
    INDEX 01 82:13:00
  TRACK 35 AUDIO
    TITLE "35..leftfield - ALL THE WAY GONE"
    INDEX 01 85:14:00
  TRACK 36 AUDIO
    TITLE "36..PHXNKY FLEXX - Thats My H0e"
    INDEX 01 86:41:00
  TRACK 37 AUDIO
    TITLE "37..raigeki - KlLL U ON CAMERA"
    INDEX 01 88:05:00
  TRACK 38 AUDIO
    TITLE "38..vahybz - hydro"
    INDEX 01 90:27:00
  TRACK 39 AUDIO
    TITLE "39..PXSSXSSXD - GOING DOWN"
    INDEX 01 93:00:00
  TRACK 40 AUDIO
    TITLE "40..N X X Y $ - THEY WILL KNOW ME w KVN"
    INDEX 01 95:51:00
  TRACK 41 AUDIO
    TITLE "41..DESTRO - $CREW IT w CHALEUR"
    INDEX 01 98:35:00
  TRACK 42 AUDIO
    TITLE "42..DVLTEM - SAUCE IT UP"
    INDEX 01 101:31:00
  TRACK 43 AUDIO
    TITLE "43..LIA$ - WEED IN THE PURSE"
    INDEX 01 104:10:00
  TRACK 44 AUDIO
    TITLE "44..ViNi $AN - B''CH HOLD ON"
    INDEX 01 106:12:00
  TRACK 45 AUDIO
    TITLE "45..TUNDRAMANE - BLADE"
    INDEX 01 108:55:00
  TRACK 46 AUDIO
    TITLE "46..Xavier Wulf - Kurokumo (Eric Dingus Remix)"
    INDEX 01 110:39:00
  TRACK 47 AUDIO
    TITLE "47..SPYDER550 - GODDD MODE"
    INDEX 01 114:30:00
  TRACK 48 AUDIO
    TITLE "48..ViNi $AN - FOR REAL"
    INDEX 01 118:02:00